<svg width="282" height="329" viewBox="0 0 282 329" fill="none" xmlns="http://www.w3.org/2000/svg">
<path d="M282 74.0077V9.77077L172.662 39.8269V25.1538C173.947 24.8495 174.657 24.5115 174.657 24.2072C174.657 23.9029 173.778 23.4634 172.223 23.1591C163.906 11.6303 154.27 5.03753 144.533 3.7866C144.547 3.70832 144.547 3.62821 144.533 3.54994C144.524 2.60534 144.143 1.70246 143.471 1.03768C142.8 0.372888 141.894 -3.93921e-05 140.949 2.64508e-06C140.491 -0.00057095 140.037 0.0921511 139.615 0.272529C139.194 0.452907 138.813 0.717171 138.497 1.04924C138.181 1.38131 137.935 1.77425 137.776 2.20415C137.616 2.63406 137.545 3.09194 137.568 3.54994V3.7866C127.831 5.03753 118.196 11.5626 109.879 23.2605C108.324 23.5648 107.445 23.9367 107.445 24.3086C107.445 24.6805 108.155 24.951 109.439 25.2552V39.8269L0 9.66935V73.9062L109.338 43.7487V58.2865H105.213V72.4863H112.719L98.2148 231.963C92.5011 232.166 86.5508 232.436 80.6342 232.707C51.5924 234.025 23.1591 235.851 23.1591 237.879H107.107L96.9639 248.36L61.6336 249.172C61.0388 247.246 59.7733 245.598 58.0668 244.527C56.3603 243.456 54.3261 243.032 52.3338 243.332C50.3414 243.633 48.5229 244.639 47.2088 246.166C45.8946 247.693 45.1719 249.642 45.1719 251.657C45.1719 253.671 45.8946 255.62 47.2088 257.147C48.5229 258.674 50.3414 259.68 52.3338 259.981C54.3261 260.281 56.3603 259.858 58.0668 258.786C59.7733 257.715 61.0388 256.067 61.6336 254.141L98.8234 253.262L114.004 237.879H123.572V247.752L108.358 263.371L73.9062 264.724L63.4593 274.866C62.2166 274.147 60.8041 273.774 59.3684 273.784C57.7117 273.805 56.0981 274.315 54.7312 275.251C53.3644 276.188 52.3057 277.508 51.6886 279.046C51.0716 280.584 50.924 282.27 51.2644 283.891C51.6048 285.513 52.4179 286.997 53.6012 288.157C54.7845 289.316 56.2849 290.099 57.9129 290.407C59.5409 290.715 61.2236 290.533 62.7485 289.886C64.2735 289.238 65.5723 288.153 66.481 286.767C67.3898 285.382 67.8677 283.758 67.8544 282.101C67.8602 280.82 67.5588 279.557 66.9754 278.416L76.07 269.761L104.233 268.578L85.5703 288.491C84.2082 287.585 82.6082 287.103 80.9723 287.105C79.314 287.105 77.6929 287.597 76.3141 288.518C74.9352 289.44 73.8605 290.749 73.2259 292.281C72.5913 293.813 72.4253 295.499 72.7488 297.126C73.0723 298.752 73.8709 300.246 75.0435 301.419C76.2161 302.591 77.7101 303.39 79.3365 303.713C80.963 304.037 82.6489 303.871 84.1809 303.236C85.713 302.602 87.0225 301.527 87.9438 300.148C88.8652 298.769 89.3569 297.148 89.3569 295.49C89.3386 294.375 89.1092 293.274 88.6807 292.244L127.933 250.49L128.609 249.814V237.879H137.535V264.927L105.315 300.493V311.819C103.399 312.414 101.76 313.676 100.695 315.375C99.6295 317.075 99.2091 319.101 99.5098 321.084C99.8104 323.067 100.812 324.877 102.333 326.185C103.854 327.493 105.794 328.212 107.8 328.212C109.806 328.212 111.745 327.493 113.266 326.185C114.787 324.877 115.789 323.067 116.09 321.084C116.39 319.101 115.97 317.075 114.905 315.375C113.84 313.676 112.2 312.414 110.285 311.819V302.387L137.535 272.297V308.168C135.619 308.763 133.98 310.024 132.914 311.724C131.849 313.424 131.429 315.449 131.73 317.433C132.03 319.416 133.032 321.226 134.553 322.534C136.074 323.841 138.014 324.561 140.02 324.561C142.025 324.561 143.965 323.841 145.486 322.534C147.007 321.226 148.009 319.416 148.309 317.433C148.61 315.449 148.19 313.424 147.125 311.724C146.06 310.024 144.42 308.763 142.504 308.168V273.311L170.735 304.01V308.303C168.855 308.975 167.277 310.299 166.289 312.034C165.301 313.769 164.967 315.801 165.348 317.761C165.729 319.721 166.799 321.479 168.366 322.718C169.932 323.956 171.89 324.592 173.886 324.511C175.881 324.43 177.781 323.636 179.241 322.274C180.701 320.912 181.625 319.072 181.845 317.087C182.065 315.103 181.567 313.105 180.44 311.456C179.314 309.807 177.634 308.617 175.705 308.1V302.049L144.77 268.24L170.769 268.781L192.542 292.853C191.568 294.238 191.048 295.892 191.054 297.586C191.054 299.244 191.546 300.865 192.467 302.244C193.388 303.623 194.698 304.698 196.23 305.332C197.762 305.967 199.448 306.133 201.074 305.809C202.701 305.486 204.195 304.687 205.367 303.515C206.54 302.342 207.339 300.848 207.662 299.222C207.986 297.595 207.82 295.909 207.185 294.377C206.55 292.845 205.476 291.536 204.097 290.614C202.718 289.693 201.097 289.201 199.439 289.201C198.409 289.203 197.388 289.398 196.43 289.776L177.598 269.051L205.355 269.626L214.281 279.769C212.89 281.294 212.118 283.283 212.117 285.347C212.083 287.011 212.546 288.647 213.445 290.047C214.344 291.447 215.64 292.548 217.166 293.21C218.693 293.871 220.382 294.063 222.019 293.762C223.655 293.46 225.165 292.679 226.356 291.517C227.547 290.355 228.365 288.864 228.706 287.236C229.048 285.607 228.896 283.914 228.272 282.371C227.648 280.829 226.579 279.507 225.201 278.574C223.824 277.641 222.199 277.139 220.535 277.132C219.899 277.13 219.264 277.198 218.642 277.334L207.688 264.724L173.034 264.014L156.501 245.723V237.879H166.644L181.419 254.209H218.372C218.966 256.134 220.232 257.782 221.938 258.854C223.645 259.925 225.679 260.349 227.672 260.048C229.664 259.747 231.482 258.742 232.796 257.215C234.111 255.687 234.833 253.739 234.833 251.724C234.833 249.709 234.111 247.761 232.796 246.234C231.482 244.706 229.664 243.701 227.672 243.4C225.679 243.099 223.645 243.523 221.938 244.595C220.232 245.666 218.966 247.314 218.372 249.239H183.65L173.507 237.879H259.517C259.517 235.479 218.236 233.349 183.92 231.997L169.281 72.4863H176.787V58.2865H172.662V43.8501L282 74.0077ZM53.5871 255.054C52.9184 255.054 52.2648 254.856 51.7088 254.485C51.1528 254.113 50.7195 253.585 50.4636 252.967C50.2077 252.349 50.1407 251.67 50.2712 251.014C50.4016 250.358 50.7236 249.756 51.1964 249.283C51.6693 248.81 52.2717 248.488 52.9275 248.358C53.5834 248.227 54.2631 248.294 54.8809 248.55C55.4987 248.806 56.0267 249.239 56.3982 249.795C56.7697 250.351 56.968 251.005 56.968 251.673C56.968 252.57 56.6118 253.43 55.9777 254.064C55.3437 254.698 54.4838 255.054 53.5871 255.054ZM59.4698 285.482C58.8012 285.482 58.1475 285.284 57.5915 284.913C57.0355 284.541 56.6022 284.013 56.3463 283.395C56.0904 282.777 56.0235 282.098 56.1539 281.442C56.2844 280.786 56.6064 280.184 57.0792 279.711C57.552 279.238 58.1544 278.916 58.8103 278.786C59.4661 278.655 60.1459 278.722 60.7637 278.978C61.3814 279.234 61.9095 279.667 62.281 280.223C62.6525 280.779 62.8507 281.433 62.8507 282.101C62.8507 282.998 62.4945 283.858 61.8605 284.492C61.2265 285.126 60.3665 285.482 59.4698 285.482ZM80.9723 299.006C80.3036 299.006 79.65 298.808 79.094 298.436C78.538 298.065 78.1047 297.537 77.8488 296.919C77.5929 296.301 77.5259 295.621 77.6564 294.965C77.7868 294.31 78.1088 293.707 78.5816 293.234C79.0545 292.762 79.6569 292.44 80.3127 292.309C80.9686 292.179 81.6483 292.246 82.2661 292.501C82.8839 292.757 83.4119 293.191 83.7834 293.747C84.1549 294.303 84.3532 294.956 84.3532 295.625C84.3014 296.486 83.9225 297.295 83.294 297.886C82.6655 298.476 81.8349 298.805 80.9723 298.803V299.006ZM111.197 320.001C111.197 320.67 110.999 321.324 110.628 321.88C110.256 322.436 109.728 322.869 109.11 323.125C108.493 323.381 107.813 323.448 107.157 323.317C106.501 323.187 105.899 322.865 105.426 322.392C104.953 321.919 104.631 321.317 104.501 320.661C104.37 320.005 104.437 319.325 104.693 318.707C104.949 318.09 105.382 317.562 105.938 317.19C106.494 316.819 107.148 316.62 107.817 316.62C108.679 316.619 109.51 316.947 110.138 317.538C110.767 318.129 111.146 318.937 111.197 319.798V320.001ZM173.507 312.969C174.176 312.969 174.83 313.167 175.386 313.539C175.942 313.91 176.375 314.438 176.631 315.056C176.887 315.674 176.954 316.354 176.823 317.009C176.693 317.665 176.371 318.268 175.898 318.741C175.425 319.213 174.823 319.535 174.167 319.666C173.511 319.796 172.831 319.729 172.213 319.473C171.596 319.217 171.068 318.784 170.696 318.228C170.325 317.672 170.126 317.019 170.126 316.35C170.099 315.889 170.166 315.428 170.323 314.994C170.481 314.56 170.725 314.163 171.042 313.827C171.359 313.491 171.741 313.224 172.165 313.041C172.589 312.859 173.046 312.765 173.507 312.766V312.969ZM199.439 294.509C200.107 294.509 200.761 294.708 201.317 295.079C201.873 295.451 202.306 295.979 202.562 296.596C202.818 297.214 202.885 297.894 202.755 298.55C202.624 299.206 202.302 299.808 201.829 300.281C201.357 300.754 200.754 301.076 200.098 301.206C199.442 301.337 198.763 301.27 198.145 301.014C197.527 300.758 196.999 300.324 196.628 299.769C196.256 299.213 196.058 298.559 196.058 297.89C196.03 297.429 196.097 296.968 196.254 296.534C196.412 296.1 196.657 295.703 196.973 295.367C197.29 295.032 197.672 294.764 198.096 294.582C198.52 294.399 198.977 294.306 199.439 294.306V294.509ZM220.535 282.101C221.204 282.101 221.858 282.3 222.414 282.671C222.97 283.043 223.403 283.571 223.659 284.189C223.915 284.806 223.982 285.486 223.851 286.142C223.721 286.798 223.399 287.4 222.926 287.873C222.453 288.346 221.851 288.668 221.195 288.798C220.539 288.929 219.859 288.862 219.242 288.606C218.624 288.35 218.096 287.917 217.724 287.361C217.353 286.805 217.155 286.151 217.155 285.482C217.155 284.586 217.511 283.726 218.145 283.092C218.779 282.458 219.639 282.101 220.535 282.101ZM136.689 30.5971H145.277V54.7366H136.689V30.5971ZM141.22 90.3374C144.08 90.3374 146.823 91.4736 148.846 93.4962C150.868 95.5188 152.005 98.262 152.005 101.122V122.456H130.469V101.122C130.469 98.2679 131.6 95.5298 133.615 93.5082C135.631 91.4865 138.365 90.3463 141.22 90.3374ZM122.219 54.7366V30.5971H130.807V54.7366H122.219ZM143.485 316.147C143.485 316.816 143.287 317.469 142.915 318.025C142.544 318.581 142.016 319.015 141.398 319.271C140.78 319.526 140.1 319.593 139.444 319.463C138.789 319.332 138.186 319.01 137.713 318.538C137.241 318.065 136.919 317.462 136.788 316.807C136.658 316.151 136.725 315.471 136.981 314.853C137.236 314.235 137.67 313.707 138.226 313.336C138.782 312.964 139.435 312.766 140.104 312.766C141.001 312.766 141.861 313.122 142.495 313.756C143.129 314.39 143.485 315.25 143.485 316.147ZM130.469 194.198V172.662C130.469 171.25 130.747 169.852 131.287 168.548C131.827 167.243 132.619 166.058 133.617 165.06C134.616 164.061 135.801 163.27 137.105 162.729C138.41 162.189 139.808 161.911 141.22 161.911C144.074 161.911 146.812 163.042 148.834 165.058C150.856 167.073 151.996 169.808 152.005 172.662V194.198H130.469ZM166.171 263.845L142.504 263.371V237.879H151.43V247.616L166.171 263.845ZM159.679 54.7366H151.193V30.5971H159.679V54.7366ZM226.384 248.293C227.053 248.293 227.707 248.491 228.263 248.862C228.819 249.234 229.252 249.762 229.508 250.38C229.764 250.997 229.831 251.677 229.7 252.333C229.57 252.989 229.248 253.591 228.775 254.064C228.302 254.537 227.7 254.859 227.044 254.989C226.388 255.12 225.708 255.053 225.091 254.797C224.473 254.541 223.945 254.108 223.573 253.552C223.202 252.996 223.003 252.342 223.003 251.673C223.003 250.777 223.36 249.917 223.994 249.283C224.628 248.649 225.488 248.293 226.384 248.293Z" fill="url(#paint0_linear_27_5130)"/>
<defs>
<linearGradient id="paint0_linear_27_5130" x1="0" y1="164.108" x2="282" y2="164.108" gradientUnits="userSpaceOnUse">
<stop stop-color="#3366FF"/>
<stop offset="1" stop-color="#4DF3FF"/>
</linearGradient>
</defs>
</svg>
